<svg width="93" height="103" viewBox="0 0 93 103" fill="none" xmlns="http://www.w3.org/2000/svg">
<g clip-path="url(#clip0_345_53)">
<path d="M77.5 77.2501C81.7625 77.2501 85.25 73.3876 85.25 68.6667V25.7501C85.25 21.0292 81.7625 17.1667 77.5 17.1667H15.5C11.2375 17.1667 7.75 21.0292 7.75 25.7501V68.6667C7.75 73.3876 11.2375 77.2501 15.5 77.2501H3.875C1.74375 77.2501 0 79.1813 0 81.5417C0 83.9022 1.74375 85.8334 3.875 85.8334H89.125C91.2563 85.8334 93 83.9022 93 81.5417C93 79.1813 91.2563 77.2501 89.125 77.2501H77.5ZM19.375 25.7501H73.625C75.7563 25.7501 77.5 27.6813 77.5 30.0417V64.3751C77.5 66.7355 75.7563 68.6667 73.625 68.6667H19.375C17.2437 68.6667 15.5 66.7355 15.5 64.3751V30.0417C15.5 27.6813 17.2437 25.7501 19.375 25.7501Z" fill="black"/>
<g clip-path="url(#clip1_345_53)">
<path d="M92.2235 102.527C92.5877 102.252 92.8415 101.878 92.9471 101.464C93.0527 101.05 93.0043 100.616 92.8092 100.228C86.0198 86.7223 71.7622 68.0585 61.3252 58.3329C58.3962 55.6159 54.7894 53.5471 50.795 52.2928C50.7151 51.3989 50.5287 50.1744 50.085 48.875C49.193 46.2802 47.1251 43.0514 42.5057 42.0238C38.0322 41.0767 33.3955 40.9003 28.8471 41.504C28.0024 41.6276 27.169 41.8052 26.3532 42.0356C25.6007 42.2406 24.899 42.5706 24.2853 43.0081C23.8794 43.3113 23.5677 43.7017 23.3801 44.1421C23.1437 44.7057 23.15 45.3268 23.3978 45.8864C23.8194 46.8511 24.8001 47.3827 25.4435 47.6662C27.1919 48.4419 28.217 49.4499 29.2908 50.9186C29.7124 51.4856 30.1073 52.088 30.5644 52.7771L31.0836 53.5567C31.7536 54.5608 32.5302 55.6829 33.5065 56.8957C35.8495 59.8055 38.8359 60.5379 41.2543 60.4237C41.8164 60.3922 42.3312 60.3292 42.7986 60.2347C43.0737 60.9119 43.4287 61.7309 43.8547 62.6287C45.0129 65.066 46.7746 68.216 49.122 70.7754C58.778 81.2885 76.5458 95.2115 89.5787 102.685C89.9799 102.915 90.454 103.023 90.9305 102.995C91.407 102.967 91.8604 102.803 92.2235 102.527ZM42.8785 56.0964C42.2905 56.3261 41.6606 56.4595 41.0191 56.4901C39.9275 56.5413 38.4765 56.2933 37.1186 54.6041C36.2444 53.5213 35.5433 52.5093 34.8998 51.5446L34.4339 50.8477C33.9635 50.135 33.4887 49.4223 33.0139 48.7687C32.1145 47.4771 30.9741 46.3307 29.6414 45.3785C32.7033 44.9375 37.3449 44.9414 41.4318 45.851C43.9124 46.3983 45.1727 48.0914 45.8383 50.0247C46.1651 50.9841 46.353 51.9764 46.3974 52.9779L42.8785 56.0964ZM49.2685 55.994C49.801 56.1515 50.4977 56.3878 51.3008 56.7146C53.8554 57.7695 56.1655 59.2384 58.1124 61.0458C66.5436 68.9051 77.6906 82.9777 84.9681 95.0304C73.475 87.4428 60.269 76.6816 52.5655 68.2869C50.6041 66.1488 49.0377 63.3926 47.9417 61.097C47.4047 59.963 46.992 58.9708 46.7213 58.262L49.2685 55.994Z" fill="black"/>
</g>
</g>
<defs>
<clipPath id="clip0_345_53">
<rect width="93" height="103" fill="white"/>
</clipPath>
<clipPath id="clip1_345_53">
<rect width="71" height="63" fill="white" transform="matrix(1 0 0 -1 22 103)"/>
</clipPath>
</defs>
</svg>
