<svg width="100" height="100" viewBox="0 0 100 100" fill="none" xmlns="http://www.w3.org/2000/svg">
<path d="M6.25 18.75V75H46.875V81.25H31.25V87.5H68.75V81.25H53.125V75H93.75V18.75H6.25ZM12.5 25H87.5V68.75H12.5V25Z" fill="black"/>
<path d="M51.5588 52.3067C50.4735 52.3067 49.401 52.1262 48.3413 51.7653C47.2817 51.4027 46.3439 50.8995 45.5281 50.256C46.4374 49.6747 47.212 48.8942 47.8518 47.9147C48.4898 46.9369 48.8088 45.7342 48.8088 44.3067C48.8088 42.8027 49.3377 41.5378 50.3956 40.512C51.4516 39.4862 52.756 38.9733 54.3088 38.9733C55.8598 38.9733 57.1642 39.4862 58.2221 40.512C59.2799 41.5378 59.8088 42.8027 59.8088 44.3067C59.8088 46.5075 59.0003 48.392 57.3833 49.96C55.77 51.5244 53.8285 52.3067 51.5588 52.3067ZM51.5588 49.64C53.0713 49.64 54.3657 49.1182 55.4418 48.0747C56.518 47.0311 57.057 45.7751 57.0588 44.3067C57.0588 43.5511 56.7948 42.9182 56.2668 42.408C55.7388 41.8978 55.0862 41.6418 54.3088 41.64C53.5297 41.64 52.8761 41.896 52.3481 42.408C51.8201 42.92 51.557 43.5529 51.5588 44.3067C51.5588 45.3289 51.4323 46.2622 51.1793 47.1067C50.9263 47.9511 50.5945 48.7511 50.1838 49.5067C50.413 49.5955 50.6422 49.64 50.8713 49.64H51.5588ZM64.9376 38.6667L60.2296 34.1013L82.7273 12.288C83.2315 11.7991 83.8622 11.5431 84.6193 11.52C85.3765 11.4969 86.0292 11.7529 86.5773 12.288L87.4353 13.1173C87.9853 13.6507 88.2603 14.2729 88.2603 14.984C88.2603 15.6951 87.9853 16.3173 87.4353 16.8507L64.9376 38.6667Z" fill="black"/>
</svg>
